<?xml version="1.0" encoding="UTF-8" standalone="no"?>
<!-- Created with Inkscape (http://www.inkscape.org/) -->

<svg
   width="2080mm"
   height="2280.0002mm"
   viewBox="0 0 2080 2280.0002"
   version="1.1"
   id="svg1"
   xml:space="preserve"
   sodipodi:docname="2D-REP.svg"
   inkscape:version="1.3.2 (091e20e, 2023-11-25, custom)"
   xmlns:inkscape="http://www.inkscape.org/namespaces/inkscape"
   xmlns:sodipodi="http://sodipodi.sourceforge.net/DTD/sodipodi-0.dtd"
   xmlns:xlink="http://www.w3.org/1999/xlink"
   xmlns="http://www.w3.org/2000/svg"
   xmlns:svg="http://www.w3.org/2000/svg"><sodipodi:namedview
     id="namedview1"
     pagecolor="#505050"
     bordercolor="#eeeeee"
     borderopacity="1"
     inkscape:showpageshadow="0"
     inkscape:pageopacity="0"
     inkscape:pagecheckerboard="0"
     inkscape:deskcolor="#505050"
     inkscape:document-units="mm"
     inkscape:zoom="0.5"
     inkscape:cx="1663"
     inkscape:cy="5395"
     inkscape:window-width="2560"
     inkscape:window-height="1387"
     inkscape:window-x="-6"
     inkscape:window-y="-6"
     inkscape:window-maximized="1"
     inkscape:current-layer="svg1" /><defs
     id="defs1"><linearGradient
       id="linearGradient13-1"><stop
         style="stop-color:#238e90;stop-opacity:1;"
         offset="0"
         id="stop17" /><stop
         style="stop-color:#49bfc2;stop-opacity:1;"
         offset="1"
         id="stop18" /></linearGradient><linearGradient
       inkscape:collect="always"
       xlink:href="#linearGradient13-1"
       id="linearGradient417"
       x1="212.6797"
       y1="1063.4923"
       x2="220.08025"
       y2="303.25241"
       gradientUnits="userSpaceOnUse"
       gradientTransform="matrix(1.0020187,0,0,1.0015752,-3.0279862,-3.4248302)" /><linearGradient
       inkscape:collect="always"
       xlink:href="#linearGradient13-1"
       id="linearGradient419"
       x1="570.10376"
       y1="1066.592"
       x2="571.13678"
       y2="304.04272"
       gradientUnits="userSpaceOnUse"
       gradientTransform="matrix(1.0020187,0,0,1.0015752,-3.0279863,-3.4248302)" /></defs><g
     id="LOC-GRD-0-0-ITEM-ROOT"
     inkscape:label="LOC-GRD-0-0-ITEM-ROOT"
     transform="matrix(9.8817719,0,0,9.8837841,-7470.2604,-12420.829)"
     style="stroke:#000000;stroke-width:0.202372;stroke-dasharray:none;stroke-opacity:1"
     inkscape:export-filename="SLD-ROYAL-2T-2S_INK.svg"
     inkscape:export-xdpi="25"
     inkscape:export-ydpi="25"><g
       id="LOC-PNL-1-2-SSH-ROOT"
       inkscape:label="LOC-PNL-1-2-SSH-ROOT"
       transform="matrix(0.26458333,0,0,0.26458333,850.3375,1190.7132)"
       style="display:inline;fill:#ffffff;fill-opacity:1;stroke:#000000;stroke-width:0.764871;stroke-dasharray:none;stroke-opacity:1"><path
         d="M 404.67293,303.63416 H 742.56814 V 1071.387 H 404.67293 Z"
         style="display:inline;fill:url(#linearGradient419);stroke:#000000;stroke-width:0.764871;stroke-dasharray:none;stroke-opacity:1"
         id="GEO-PNL-1-2-SSH-GLZ-IN"
         transform="translate(-353.53843,4.5669292e-5)"
         inkscape:label="GEO-PNL-1-2-SSH-GLZ-IN" /><g
         id="LOC-PNL-1-2-SSH-SIDE-L"
         inkscape:label="LOC-PNL-1-2-SSH-SIDE-L"
         style="display:inline;fill:#ffffff;fill-opacity:1;stroke:#000000;stroke-width:0.764871;stroke-dasharray:none;stroke-opacity:1"
         transform="translate(-2.4994793e-5,4.5669292e-5)"><path
           d="M 30.90854,320.94718 H 55.71169 V 1054.074 H 30.90854 Z"
           style="fill:#ffffff;fill-opacity:1;stroke:#000000;stroke-width:0.764871;stroke-dasharray:none;stroke-opacity:1"
           id="GEO-PNL-1-2-SSH-SIDE-L"
           inkscape:label="GEO-PNL-1-2-SSH-SIDE-L" /><path
           d="m 55.71169,1053.4525 v 13.3555 l -24.80315,24.8031 v -38.1586"
           style="display:inline;fill:#ffffff;fill-opacity:1;stroke:#000000;stroke-width:0.764871;stroke-dasharray:none;stroke-opacity:1"
           id="GEO-PNL-1-2-SSH-SIDE-L-END-B"
           transform="translate(-9.44882e-6,4.5669292e-5)"
           inkscape:label="GEO-PNL-1-2-SSH-SIDE-L-END-B" /><path
           d="M 55.71169,321.56875 V 308.2132 L 30.90854,283.41005 v 38.1587"
           style="display:inline;fill:#ffffff;fill-opacity:1;stroke:#000000;stroke-width:0.764871;stroke-dasharray:none;stroke-opacity:1"
           id="GEO-PNL-1-2-SSH-SIDE-L-END-T"
           transform="translate(-9.44882e-6,4.5669292e-5)"
           inkscape:label="GEO-PNL-1-2-SSH-SIDE-L-END-T" /></g><g
         id="LOC-PNL-1-2-SSH-SIDE-R"
         inkscape:label="LOC-PNL-1-2-SSH-SIDE-R"
         style="stroke:#000000;stroke-width:0.764871;stroke-dasharray:none;stroke-opacity:1"><path
           d="m 409.25197,320.92947 h -24.80315 v 733.16233 h 24.80315 z"
           style="fill:#ffffff;fill-opacity:1;stroke:#000000;stroke-width:0.764871;stroke-dasharray:none;stroke-opacity:1"
           id="GEO-PNL-1-2-SSH-SIDE-R"
           inkscape:label="GEO-PNL-1-2-SSH-SIDE-R" /><path
           d="M 384.44882,321.56875 V 308.2132 l 24.80315,-24.80315 v 38.1587"
           style="display:inline;fill:#ffffff;fill-opacity:1;stroke:#000000;stroke-width:0.764871;stroke-dasharray:none;stroke-opacity:1"
           id="GEO-PNL-1-2-SSH-SIDE-R-END-T"
           transform="translate(-9.44882e-6,4.5669292e-5)"
           inkscape:label="GEO-PNL-1-2-SSH-SIDE-R-END-T" /><path
           d="m 384.44882,1053.4525 v 13.3555 l 24.80315,24.8031 v -38.1586"
           style="display:inline;fill:#ffffff;fill-opacity:1;stroke:#000000;stroke-width:0.764871;stroke-dasharray:none;stroke-opacity:1"
           id="GEO-PNL-1-2-SSH-SIDE-R-END-B"
           transform="translate(-9.44882e-6,4.5669292e-5)"
           inkscape:label="GEO-PNL-1-2-SSH-SIDE-R-END-B" /><path
           id="GEO-PNL-1-2-SSH-SIDE-HW-R-CLSGR-TYP001-LAT"
           style="display:inline;fill:#000000;fill-opacity:1;stroke:#ffffff;stroke-width:0.764871;stroke-dasharray:none;stroke-opacity:1"
           d="m 755.16051,660.03634 a 2.289522,2.289522 0 0 0 -1.55507,-1.32446 13.355542,13.355542 0 0 0 -6.42953,0 2.289522,2.289522 0 0 0 -1.55507,1.32446 v 54.94852 a 2.289522,2.289522 0 0 0 1.55507,1.32446 13.355542,13.355542 0 0 0 6.43488,-10e-4 2.284941,2.284941 0 0 0 1.54972,-1.32313 z m -1.62168,33.31667 v -23.13243 a 5.342217,5.342217 0 0 0 -6.29631,0 v 23.13243 a 5.342217,5.342217 0 0 0 6.29631,0 z m -6.38263,22.95133 a 2.289522,2.289522 0 0 0 0.0197,0.005 m 0.0666,-24.23846 a 5.342217,5.342217 0 0 0 6.29631,0 m 0,-20.69028 a 5.342217,5.342217 0 0 0 -6.29631,0"
           transform="translate(-353.53843,4.5669292e-5)"
           inkscape:label="GEO-PNL-1-2-SSH-SIDE-HW-R-CLSGR-TYP001-LAT" /></g><g
         id="LOC-PNL-1-2-SSH-RAIL-B"
         inkscape:label="LOC-PNL-1-2-SSH-RAIL-B"
         style="display:inline;fill:#ffffff;fill-opacity:1;stroke:#000000;stroke-width:0.764871;stroke-dasharray:none;stroke-opacity:1"
         transform="translate(-9.44882e-6,4.5669292e-5)"><path
           d="M 68.535272,1066.808 H 371.62524 v 24.8031 H 68.535272 Z"
           style="fill:#ffffff;fill-opacity:1;stroke:#000000;stroke-width:0.764871;stroke-dasharray:none;stroke-opacity:1"
           id="GEO-PNL-1-2-SSH-RAIL-B"
           inkscape:label="GEO-PNL-1-2-SSH-RAIL-B" /><path
           d="M 69.067232,1066.808 H 55.71169 l -24.80315,24.8031 h 38.158692"
           style="display:inline;fill:#ffffff;fill-opacity:1;stroke:#000000;stroke-width:0.764871;stroke-dasharray:none;stroke-opacity:1"
           id="GEO-PNL-1-2-SSH-RAIL-B-END-L"
           transform="translate(-9.44882e-6,4.5669292e-5)"
           inkscape:label="GEO-PNL-1-2-SSH-RAIL-B-END-L" /><path
           d="m 371.09328,1066.808 h 13.35554 l 24.80315,24.8031 h -38.15869"
           style="display:inline;fill:#ffffff;fill-opacity:1;stroke:#000000;stroke-width:0.764871;stroke-dasharray:none;stroke-opacity:1"
           id="GEO-PNL-1-2-SSH-RAIL-B-END-R"
           transform="translate(-9.44882e-6,4.5669292e-5)"
           inkscape:label="GEO-PNL-1-2-SSH-RAIL-B-END-R" /></g><g
         id="LOC-PNL-1-2-SSH-RAIL-T"
         inkscape:label="LOC-PNL-1-2-SSH-RAIL-T"
         style="display:inline;fill:#ffffff;fill-opacity:1;stroke:#000000;stroke-width:0.764871;stroke-dasharray:none;stroke-opacity:1"
         transform="translate(-9.44882e-6,4.5669292e-5)"><path
           d="M 68.332654,283.41005 H 371.82785 V 308.2132 H 68.332654 Z"
           style="fill:#ffffff;fill-opacity:1;stroke:#000000;stroke-width:0.764871;stroke-dasharray:none;stroke-opacity:1"
           id="GEO-PNL-1-2-SSH-RAIL-T"
           inkscape:label="GEO-PNL-1-2-SSH-RAIL-T" /><path
           d="M 69.067232,308.2132 H 55.71169 L 30.90854,283.41005 h 38.158692"
           style="display:inline;fill:#ffffff;fill-opacity:1;stroke:#000000;stroke-width:0.764871;stroke-dasharray:none;stroke-opacity:1"
           id="GEO-PNL-1-2-SSH-RAIL-T-END-L"
           transform="translate(-9.44882e-6,4.5669292e-5)"
           inkscape:label="GEO-PNL-1-2-SSH-RAIL-T-END-L" /><path
           d="m 371.09328,308.2132 h 13.35554 l 24.80315,-24.80315 h -38.15869"
           style="display:inline;fill:#ffffff;fill-opacity:1;stroke:#000000;stroke-width:0.764871;stroke-dasharray:none;stroke-opacity:1"
           id="GEO-PNL-1-2-SSH-RAIL-T-END-R"
           transform="translate(-9.44882e-6,4.5669292e-5)"
           inkscape:label="GEO-PNL-1-2-SSH-RAIL-T-END-R" /></g><path
         d="m 416.93987,651.31601 -4.04734,4.04734 22.60758,22.60758 h -91.11792 v 5.7238 H 449.3186 Z"
         style="display:inline;fill:#000000;fill-opacity:1;stroke:#ffffff;stroke-width:0.764871;stroke-dasharray:none;stroke-opacity:1"
         id="GEO-PNL-1-2-SSH-ANNO-ARROW-C"
         inkscape:label="GEO-PNL-1-2-SSH-ANNO-ARROW-C"
         transform="rotate(180,308.46639,687.50993)" /></g><g
       id="LOC-PNL-1-1-SSH-ROOT"
       inkscape:label="LOC-PNL-1-1-SSH-ROOT"
       style="display:inline;fill:#ffffff;fill-opacity:1;stroke:#000000;stroke-width:0.764871;stroke-dasharray:none;stroke-opacity:1"
       transform="matrix(0.26458333,0,0,0.26458333,756.79713,1190.7132)"><path
         d="M 51.132647,303.63416 H 389.02786 V 1071.387 H 51.132647 Z"
         style="display:inline;fill:url(#linearGradient417);stroke:#000000;stroke-width:0.764871;stroke-dasharray:none;stroke-opacity:1"
         id="GEO-PNL-1-1-SSH-GLZ-IN"
         transform="translate(-9.44882e-6,4.5669292e-5)"
         inkscape:label="GEO-PNL-1-1-SSH-GLZ-IN" /><g
         id="LOC-PNL-1-1-SSH-SIDE-L"
         inkscape:label="LOC-PNL-1-1-SSH-SIDE-L"
         style="display:inline;fill:#ffffff;fill-opacity:1;stroke:#000000;stroke-width:0.764871;stroke-dasharray:none;stroke-opacity:1"
         transform="translate(-9.44882e-6,4.5669292e-5)"><path
           d="M 30.90854,320.94718 H 55.71169 V 1054.074 H 30.90854 Z"
           style="fill:#ffffff;fill-opacity:1;stroke:#000000;stroke-width:0.764871;stroke-dasharray:none;stroke-opacity:1"
           id="GEO-PNL-1-1-SSH-SIDE-L"
           inkscape:label="GEO-PNL-1-1-SSH-SIDE-L" /><path
           d="m 55.71169,1053.4525 v 13.3555 l -24.80315,24.8031 v -38.1586"
           style="display:inline;fill:#ffffff;fill-opacity:1;stroke:#000000;stroke-width:0.764871;stroke-dasharray:none;stroke-opacity:1"
           id="GEO-PNL-1-1-SSH-SIDE-L-END-B"
           transform="translate(-9.44882e-6,4.5669292e-5)"
           inkscape:label="GEO-PNL-1-1-SSH-SIDE-L-END-B" /><path
           d="M 55.71169,321.56875 V 308.2132 L 30.90854,283.41005 v 38.1587"
           style="display:inline;fill:#ffffff;fill-opacity:1;stroke:#000000;stroke-width:0.764871;stroke-dasharray:none;stroke-opacity:1"
           id="GEO-PNL-1-1-SSH-SIDE-L-END-T"
           transform="translate(-9.44882e-6,4.5669292e-5)"
           inkscape:label="GEO-PNL-1-1-SSH-SIDE-L-END-T" /><path
           id="GEO-PNL-1-1-SSH-SIDE-HW-L-CLSGR-TYP001-LAT"
           style="display:inline;fill:#000000;fill-opacity:1;stroke:#ffffff;stroke-width:0.764871;stroke-dasharray:none;stroke-opacity:1"
           d="m 38.540279,660.03634 a 2.289522,2.289522 0 0 1 1.55507,-1.32446 13.355542,13.355542 0 0 1 6.429533,0 2.289522,2.289522 0 0 1 1.55507,1.32446 v 54.94852 a 2.289522,2.289522 0 0 1 -1.55507,1.32446 13.355542,13.355542 0 0 1 -6.434881,-10e-4 2.284941,2.284941 0 0 1 -1.549722,-1.32313 z m 1.621681,33.31667 v -23.13243 a 5.342217,5.342217 0 0 1 6.29631,0 v 23.13243 a 5.342217,5.342217 0 0 1 -6.29631,0 z m 6.362921,22.95631 a 2.289522,2.289522 0 0 0 0.01971,-0.005 M 40.16196,692.07088 a 5.342217,5.342217 0 0 0 6.29631,0 m 0,-20.69028 a 5.342217,5.342217 0 0 0 -6.29631,0"
           inkscape:label="GEO-PNL-1-1-SSH-SIDE-HW-L-CLSGR-TYP001-LAT" /></g><g
         id="LOC-PNL-1-1-SSH-SIDE-R"
         inkscape:label="LOC-PNL-1-1-SSH-SIDE-R"
         style="stroke:#000000;stroke-width:0.764871;stroke-dasharray:none;stroke-opacity:1"><path
           d="m 409.25197,320.92947 h -24.80315 v 733.16233 h 24.80315 z"
           style="fill:#ffffff;fill-opacity:1;stroke:#000000;stroke-width:0.764871;stroke-dasharray:none;stroke-opacity:1"
           id="GEO-PNL-1-1-SSH-SIDE-R"
           inkscape:label="GEO-PNL-1-1-SSH-SIDE-R" /><path
           d="M 384.44882,321.56875 V 308.2132 l 24.80315,-24.80315 v 38.1587"
           style="display:inline;fill:#ffffff;fill-opacity:1;stroke:#000000;stroke-width:0.764871;stroke-dasharray:none;stroke-opacity:1"
           id="GEO-PNL-1-1-SSH-SIDE-R-END-T"
           transform="translate(-9.44882e-6,4.5669292e-5)"
           inkscape:label="GEO-PNL-1-1-SSH-SIDE-R-END-T" /><path
           d="m 384.44882,1053.4525 v 13.3555 l 24.80315,24.8031 v -38.1586"
           style="display:inline;fill:#ffffff;fill-opacity:1;stroke:#000000;stroke-width:0.764871;stroke-dasharray:none;stroke-opacity:1"
           id="GEO-PNL-1-1-SSH-SIDE-R-END-B"
           transform="translate(-9.44882e-6,4.5669292e-5)"
           inkscape:label="GEO-PNL-1-1-SSH-SIDE-R-END-B" /></g><g
         id="LOC-PNL-1-1-SSH-RAIL-B"
         inkscape:label="LOC-PNL-1-1-SSH-RAIL-B"
         style="display:inline;fill:#ffffff;fill-opacity:1;stroke:#000000;stroke-width:0.764871;stroke-dasharray:none;stroke-opacity:1"
         transform="translate(-9.44882e-6,4.5669292e-5)"><path
           d="M 68.535272,1066.808 H 371.62524 v 24.8031 H 68.535272 Z"
           style="fill:#ffffff;fill-opacity:1;stroke:#000000;stroke-width:0.764871;stroke-dasharray:none;stroke-opacity:1"
           id="GEO-PNL-1-1-SSH-RAIL-B"
           inkscape:label="GEO-PNL-1-1-SSH-RAIL-B" /><path
           d="M 69.067232,1066.808 H 55.71169 l -24.80315,24.8031 h 38.158692"
           style="display:inline;fill:#ffffff;fill-opacity:1;stroke:#000000;stroke-width:0.764871;stroke-dasharray:none;stroke-opacity:1"
           id="GEO-PNL-1-1-SSH-RAIL-B-END-L"
           transform="translate(-9.44882e-6,4.5669292e-5)"
           inkscape:label="GEO-PNL-1-1-SSH-RAIL-B-END-L" /><path
           d="m 371.09328,1066.808 h 13.35554 l 24.80315,24.8031 h -38.15869"
           style="display:inline;fill:#ffffff;fill-opacity:1;stroke:#000000;stroke-width:0.764871;stroke-dasharray:none;stroke-opacity:1"
           id="GEO-PNL-1-1-SSH-RAIL-B-END-R"
           transform="translate(-9.44882e-6,4.5669292e-5)"
           inkscape:label="GEO-PNL-1-1-SSH-RAIL-B-END-R" /></g><g
         id="LOC-PNL-1-1-SSH-RAIL-T"
         inkscape:label="LOC-PNL-1-1-SSH-RAIL-T"
         style="display:inline;fill:#ffffff;fill-opacity:1;stroke:#000000;stroke-width:0.764871;stroke-dasharray:none;stroke-opacity:1"
         transform="translate(-9.44882e-6,4.5669292e-5)"><path
           d="M 68.332654,283.41005 H 371.82785 V 308.2132 H 68.332654 Z"
           style="fill:#ffffff;fill-opacity:1;stroke:#000000;stroke-width:0.764871;stroke-dasharray:none;stroke-opacity:1"
           id="GEO-PNL-1-1-SSH-RAIL-T"
           inkscape:label="GEO-PNL-1-1-SSH-RAIL-T" /><path
           d="M 69.067232,308.2132 H 55.71169 L 30.90854,283.41005 h 38.158692"
           style="display:inline;fill:#ffffff;fill-opacity:1;stroke:#000000;stroke-width:0.764871;stroke-dasharray:none;stroke-opacity:1"
           id="GEO-PNL-1-1-SSH-RAIL-T-END-L"
           transform="translate(-9.44882e-6,4.5669292e-5)"
           inkscape:label="GEO-PNL-1-1-SSH-RAIL-T-END-L" /><path
           d="m 371.09328,308.2132 h 13.35554 l 24.80315,-24.80315 h -38.15869"
           style="display:inline;fill:#ffffff;fill-opacity:1;stroke:#000000;stroke-width:0.764871;stroke-dasharray:none;stroke-opacity:1"
           id="GEO-PNL-1-1-SSH-RAIL-T-END-R"
           transform="translate(-9.44882e-6,4.5669292e-5)"
           inkscape:label="GEO-PNL-1-1-SSH-RAIL-T-END-R" /></g><path
         d="m 416.93987,651.31601 -4.04734,4.04734 22.60758,22.60758 h -91.11792 v 5.7238 H 449.3186 Z"
         style="display:inline;fill:#000000;fill-opacity:1;stroke:#ffffff;stroke-width:0.764871;stroke-dasharray:none;stroke-opacity:1"
         id="GEO-PNL-1-1-SSH-ANNO-ARROW-C"
         transform="translate(-176.77001,4.5669292e-5)"
         inkscape:label="GEO-PNL-1-1-SSH-ANNO-ARROW-C" /></g><g
       id="LOC-GRD-0-0-FRM-ROOT"
       inkscape:label="LOC-GRD-0-0-FRM-ROOT"
       style="display:inline;stroke:#000000;stroke-width:0.202372;stroke-dasharray:none;stroke-opacity:1"
       transform="translate(-1.094086e-5)"><g
         id="LOC-GRD-0-0-FRM-SIDE-R"
         style="fill:#ffffff;fill-opacity:1;stroke:#000000;stroke-width:0.202372;stroke-dasharray:none;stroke-opacity:1"
         inkscape:label="LOC-GRD-0-0-FRM-SIDE-R"><path
           d="m 957.4077,1473.8112 h 9.38943 V 1271.423 h -9.38943 z"
           style="fill:#ffffff;fill-opacity:1;stroke:#000000;stroke-width:0.202372;stroke-dasharray:none;stroke-opacity:1"
           id="GEO-GRD-0-0-FRM-SIDE-R"
           inkscape:label="GEO-GRD-0-0-FRM-SIDE-R" /><path
           d="m 793.70079,1069.0975 v 53.4222 l -35.48759,-35.4876 v -17.9346"
           style="fill:#ffffff;fill-opacity:1;stroke:#000000;stroke-width:0.764871;stroke-dasharray:none;stroke-opacity:1"
           id="GEO-GRD-0-0-FRM-SIDE-R-END-B"
           transform="matrix(0.26458333,0,0,0.26458333,756.79713,1190.7132)"
           inkscape:label="GEO-GRD-0-0-FRM-SIDE-R-END-B" /><path
           d="M 793.70079,305.92368 V 252.50151 L 758.2132,287.9891 v 17.93458"
           style="fill:#ffffff;fill-opacity:1;stroke:#000000;stroke-width:0.764871;stroke-dasharray:none;stroke-opacity:1"
           id="GEO-GRD-0-0-FRM-SIDE-R-END-T"
           transform="matrix(0.26458333,0,0,0.26458333,756.79713,1190.7132)"
           inkscape:label="GEO-GRD-0-0-FRM-SIDE-R-END-T" /></g><g
         id="LOC-GRD-0-0-FRM-RAIL-B"
         style="fill:#ffffff;fill-opacity:1;stroke:#000000;stroke-width:0.202372;stroke-dasharray:none;stroke-opacity:1"
         inkscape:label="LOC-GRD-0-0-FRM-RAIL-B"><path
           d="M 952.91604,1478.3239 H 770.67821 v 9.3891 h 182.23783 z"
           style="fill:#ffffff;fill-opacity:1;stroke:#000000;stroke-width:0.202372;stroke-dasharray:none;stroke-opacity:1"
           id="GEO-GRD-0-0-FRM-RAIL-B"
           inkscape:label="GEO-GRD-0-0-FRM-RAIL-B" /><path
           d="m 740.27862,1122.5197 h 53.42217 l -35.48759,-35.4876 h -17.93458"
           style="fill:#ffffff;fill-opacity:1;stroke:#000000;stroke-width:0.764871;stroke-dasharray:none;stroke-opacity:1"
           id="GEO-GRD-0-0-FRM-RAIL-B-END-R"
           transform="matrix(0.26458333,0,0,0.26458333,756.79713,1190.7132)"
           inkscape:label="GEO-GRD-0-0-FRM-RAIL-B-END-R" /><path
           d="M 53.422168,1122.5197 H 0 l 35.487583,-35.4876 h 17.934585"
           style="fill:#ffffff;fill-opacity:1;stroke:#000000;stroke-width:0.764871;stroke-dasharray:none;stroke-opacity:1"
           id="GEO-GRD-0-0-FRM-RAIL-B-END-L"
           transform="matrix(0.26458333,0,0,0.26458333,756.79713,1190.7132)"
           inkscape:label="GEO-GRD-0-0-FRM-RAIL-B-END-L" /></g><g
         id="LOC-GRD-0-0-FRM-SIDE-L"
         style="fill:#ffffff;fill-opacity:1;stroke:#000000;stroke-width:0.202372;stroke-dasharray:none;stroke-opacity:1"
         inkscape:label="LOC-GRD-0-0-FRM-SIDE-L"><path
           d="m 766.18633,1271.3174 h -9.38898 v 202.5992 h 9.38898 z"
           style="fill:#ffffff;fill-opacity:1;stroke:#000000;stroke-width:0.202372;stroke-dasharray:none;stroke-opacity:1"
           id="GEO-GRD-0-0-FRM-SIDE-L"
           inkscape:label="GEO-GRD-0-0-FRM-SIDE-L" /><path
           d="m 0,305.92368 v -53.42217 l 35.487583,35.48759 v 17.93458"
           style="fill:#ffffff;fill-opacity:1;stroke:#000000;stroke-width:0.764871;stroke-dasharray:none;stroke-opacity:1"
           id="GEO-GRD-0-0-FRM-SIDE-L-END-T"
           transform="matrix(0.26458333,0,0,0.26458333,756.79713,1190.7132)"
           inkscape:label="GEO-GRD-0-0-FRM-SIDE-L-END-T" /><path
           d="m 0,1069.0975 v 53.4222 l 35.487583,-35.4876 v -17.9346"
           style="fill:#ffffff;fill-opacity:1;stroke:#000000;stroke-width:0.764871;stroke-dasharray:none;stroke-opacity:1"
           id="GEO-GRD-0-0-FRM-SIDE-L-END-B"
           transform="matrix(0.26458333,0,0,0.26458333,756.79713,1190.7132)"
           inkscape:label="GEO-GRD-0-0-FRM-SIDE-L-END-B" /></g><g
         id="LOC-GRD-0-0-FRM-RAIL-T"
         style="fill:#ffffff;fill-opacity:1;stroke:#000000;stroke-width:0.202372;stroke-dasharray:none;stroke-opacity:1"
         inkscape:label="LOC-GRD-0-0-FRM-RAIL-T"><path
           d="M 953.42312,1257.5214 H 770.17113 v 9.3884 h 183.25199 z"
           style="fill:#ffffff;fill-opacity:1;stroke:#000000;stroke-width:0.202372;stroke-dasharray:none;stroke-opacity:1"
           id="GEO-GRD-0-0-FRM-RAIL-T"
           inkscape:label="GEO-GRD-0-0-FRM-RAIL-T" /><path
           d="M 53.422168,252.50151 H 0 l 35.487583,35.48759 h 17.934585"
           style="fill:#ffffff;fill-opacity:1;stroke:#000000;stroke-width:0.764871;stroke-dasharray:none;stroke-opacity:1"
           id="GEO-GRD-0-0-FRM-RAIL-T-END-L"
           transform="matrix(0.26458333,0,0,0.26458333,756.79713,1190.7132)"
           inkscape:label="GEO-GRD-0-0-FRM-RAIL-T-END-L" /><path
           d="m 740.27862,252.50151 h 53.42217 L 758.2132,287.9891 h -17.93458"
           style="fill:#ffffff;fill-opacity:1;stroke:#000000;stroke-width:0.764871;stroke-dasharray:none;stroke-opacity:1"
           id="GEO-GRD-0-0-FRM-RAIL-T-END-R"
           transform="matrix(0.26458333,0,0,0.26458333,756.79713,1190.7132)"
           inkscape:label="GEO-GRD-0-0-FRM-RAIL-T-END-R" /></g></g></g></svg>
